<?xml version="1.0" encoding="UTF-8" standalone="no"?>
<!DOCTYPE svg PUBLIC "-//W3C//DTD SVG 1.0//EN" "http://www.w3.org/TR/2001/PR-SVG-20010719/DTD/svg10.dtd">
<svg width="18cm" height="4cm" viewBox="275 33 355 73" xmlns="http://www.w3.org/2000/svg" xmlns:xlink="http://www.w3.org/1999/xlink">
  <g>
    <line style="fill: none; fill-opacity:0; stroke-width: 2; stroke: #000000" x1="363.9" y1="69.5" x2="389.464" y2="69.4276"/>
    <polygon style="fill: #000000" points="396.964,69.4063 386.978,74.4346 389.464,69.4276 386.95,64.4347 "/>
    <polygon style="fill: none; fill-opacity:0; stroke-width: 2; stroke: #000000" points="396.964,69.4063 386.978,74.4346 389.464,69.4276 386.95,64.4347 "/>
  </g>
  <g>
    <rect style="fill: #a3e65f" x="286.5" y="34.5" width="67.4" height="70"/>
    <path style="fill: #a3e65f" d="M 286.5,34.5 A 10,10 0 0 0 276.5,44.5 L 286.5,44.5 z"/>
    <path style="fill: #a3e65f" d="M 363.9,44.5 A 10,10 0 0 0 353.9,34.5 L 353.9,44.5 z"/>
    <rect style="fill: #a3e65f" x="276.5" y="44.5" width="87.4" height="50"/>
    <path style="fill: #a3e65f" d="M 276.5,94.5 A 10,10 0 0 0 286.5,104.5 L 286.5,94.5 z"/>
    <path style="fill: #a3e65f" d="M 353.9,104.5 A 10,10 0 0 0 363.9,94.5 L 353.9,94.5 z"/>
    <line style="fill: none; fill-opacity:0; stroke-width: 2; stroke: #006304" x1="286.5" y1="34.5" x2="353.9" y2="34.5"/>
    <line style="fill: none; fill-opacity:0; stroke-width: 2; stroke: #006304" x1="286.5" y1="104.5" x2="353.9" y2="104.5"/>
    <path style="fill: none; fill-opacity:0; stroke-width: 2; stroke: #006304" d="M 286.5,34.5 A 10,10 0 0 0 276.5,44.5"/>
    <path style="fill: none; fill-opacity:0; stroke-width: 2; stroke: #006304" d="M 363.9,44.5 A 10,10 0 0 0 353.9,34.5"/>
    <line style="fill: none; fill-opacity:0; stroke-width: 2; stroke: #006304" x1="276.5" y1="44.5" x2="276.5" y2="94.5"/>
    <line style="fill: none; fill-opacity:0; stroke-width: 2; stroke: #006304" x1="363.9" y1="44.5" x2="363.9" y2="94.5"/>
    <path style="fill: none; fill-opacity:0; stroke-width: 2; stroke: #006304" d="M 276.5,94.5 A 10,10 0 0 0 286.5,104.5"/>
    <path style="fill: none; fill-opacity:0; stroke-width: 2; stroke: #006304" d="M 353.9,104.5 A 10,10 0 0 0 363.9,94.5"/>
    <text style="fill: #000000;text-anchor:middle;font-size:12.8;font-family:Times New Roman;font-style:normal;font-weight:700" x="320.2" y="72.95">
      <tspan x="320.2" y="72.95">Front End</tspan>
    </text>
  </g>
  <g>
    <rect style="fill: #fdfd1f" x="409.2" y="34.4" width="64" height="70"/>
    <path style="fill: #fdfd1f" d="M 409.2,34.4 A 10,10 0 0 0 399.2,44.4 L 409.2,44.4 z"/>
    <path style="fill: #fdfd1f" d="M 483.2,44.4 A 10,10 0 0 0 473.2,34.4 L 473.2,44.4 z"/>
    <rect style="fill: #fdfd1f" x="399.2" y="44.4" width="84" height="50"/>
    <path style="fill: #fdfd1f" d="M 399.2,94.4 A 10,10 0 0 0 409.2,104.4 L 409.2,94.4 z"/>
    <path style="fill: #fdfd1f" d="M 473.2,104.4 A 10,10 0 0 0 483.2,94.4 L 473.2,94.4 z"/>
    <line style="fill: none; fill-opacity:0; stroke-width: 2; stroke: #df6c11" x1="409.2" y1="34.4" x2="473.2" y2="34.4"/>
    <line style="fill: none; fill-opacity:0; stroke-width: 2; stroke: #df6c11" x1="409.2" y1="104.4" x2="473.2" y2="104.4"/>
    <path style="fill: none; fill-opacity:0; stroke-width: 2; stroke: #df6c11" d="M 409.2,34.4 A 10,10 0 0 0 399.2,44.4"/>
    <path style="fill: none; fill-opacity:0; stroke-width: 2; stroke: #df6c11" d="M 483.2,44.4 A 10,10 0 0 0 473.2,34.4"/>
    <line style="fill: none; fill-opacity:0; stroke-width: 2; stroke: #df6c11" x1="399.2" y1="44.4" x2="399.2" y2="94.4"/>
    <line style="fill: none; fill-opacity:0; stroke-width: 2; stroke: #df6c11" x1="483.2" y1="44.4" x2="483.2" y2="94.4"/>
    <path style="fill: none; fill-opacity:0; stroke-width: 2; stroke: #df6c11" d="M 399.2,94.4 A 10,10 0 0 0 409.2,104.4"/>
    <path style="fill: none; fill-opacity:0; stroke-width: 2; stroke: #df6c11" d="M 473.2,104.4 A 10,10 0 0 0 483.2,94.4"/>
    <text style="fill: #000000;text-anchor:middle;font-size:12.8;font-family:Times New Roman;font-style:normal;font-weight:700" x="441.2" y="72.85">
      <tspan x="441.2" y="72.85">Reactor</tspan>
    </text>
  </g>
  <g>
    <line style="fill: none; fill-opacity:0; stroke-width: 2; stroke: #000000" x1="483.2" y1="69.4" x2="535.464" y2="69.4"/>
    <polygon style="fill: #000000" points="542.964,69.4 532.964,74.4 535.464,69.4 532.964,64.4 "/>
    <polygon style="fill: none; fill-opacity:0; stroke-width: 2; stroke: #000000" points="542.964,69.4 532.964,74.4 535.464,69.4 532.964,64.4 "/>
  </g>
  <g>
    <rect style="fill: #cab8e0" x="555.2" y="34.4" width="64" height="70"/>
    <path style="fill: #cab8e0" d="M 555.2,34.4 A 10,10 0 0 0 545.2,44.4 L 555.2,44.4 z"/>
    <path style="fill: #cab8e0" d="M 629.2,44.4 A 10,10 0 0 0 619.2,34.4 L 619.2,44.4 z"/>
    <rect style="fill: #cab8e0" x="545.2" y="44.4" width="84" height="50"/>
    <path style="fill: #cab8e0" d="M 545.2,94.4 A 10,10 0 0 0 555.2,104.4 L 555.2,94.4 z"/>
    <path style="fill: #cab8e0" d="M 619.2,104.4 A 10,10 0 0 0 629.2,94.4 L 619.2,94.4 z"/>
    <line style="fill: none; fill-opacity:0; stroke-width: 2; stroke: #49577a" x1="555.2" y1="34.4" x2="619.2" y2="34.4"/>
    <line style="fill: none; fill-opacity:0; stroke-width: 2; stroke: #49577a" x1="555.2" y1="104.4" x2="619.2" y2="104.4"/>
    <path style="fill: none; fill-opacity:0; stroke-width: 2; stroke: #49577a" d="M 555.2,34.4 A 10,10 0 0 0 545.2,44.4"/>
    <path style="fill: none; fill-opacity:0; stroke-width: 2; stroke: #49577a" d="M 629.2,44.4 A 10,10 0 0 0 619.2,34.4"/>
    <line style="fill: none; fill-opacity:0; stroke-width: 2; stroke: #49577a" x1="545.2" y1="44.4" x2="545.2" y2="94.4"/>
    <line style="fill: none; fill-opacity:0; stroke-width: 2; stroke: #49577a" x1="629.2" y1="44.4" x2="629.2" y2="94.4"/>
    <path style="fill: none; fill-opacity:0; stroke-width: 2; stroke: #49577a" d="M 545.2,94.4 A 10,10 0 0 0 555.2,104.4"/>
    <path style="fill: none; fill-opacity:0; stroke-width: 2; stroke: #49577a" d="M 619.2,104.4 A 10,10 0 0 0 629.2,94.4"/>
    <text style="fill: #000000;text-anchor:middle;font-size:12.8;font-family:Times New Roman;font-style:normal;font-weight:700" x="587.2" y="72.85">
      <tspan x="587.2" y="72.85">Repository</tspan>
    </text>
  </g>
  <text style="fill: #000000;text-anchor:start;font-size:12.8;font-family:Times New Roman;font-style:normal;font-weight:700" x="493.85" y="63.025">
    <tspan x="493.85" y="63.025">Decay</tspan>
  </text>
</svg>
